<svg width="33" height="33" viewBox="0 0 33 33" fill="none" xmlns="http://www.w3.org/2000/svg">
<path d="M28.875 3.7126L28.2562 3.09385C26.9156 1.75322 24.6469 1.75322 23.3062 3.09385L22.0687 4.33135C19.9031 3.3001 17.4281 2.8876 14.85 3.19697C8.76562 3.91885 3.91875 8.76572 3.19687 14.8501C2.26875 22.997 8.55937 29.9063 16.5 29.9063C18.7687 29.9063 20.9344 29.3907 22.7906 28.3595L25.0594 30.6282C25.1625 30.7313 25.2656 30.8345 25.3687 30.8345H25.4719H25.575C25.6781 30.8345 25.6781 30.8345 25.7812 30.8345C25.8844 30.8345 25.8844 30.8345 25.9875 30.8345H26.0906H26.1937C26.2969 30.8345 26.4 30.7313 26.5031 30.6282C26.6062 30.5251 26.7094 30.422 26.7094 30.3188V30.2157V30.1126V30.0095V25.1626C28.6687 22.7907 29.8031 19.8001 29.8031 16.6032C29.8031 14.0251 29.0812 11.7563 27.8437 9.69385L28.875 8.6626C30.2156 7.32197 30.2156 5.05322 28.875 3.7126ZM26.8125 17.5313H27.8437C27.5344 20.9345 25.6781 23.9251 22.9969 25.7813C22.5844 26.0907 22.1719 26.297 21.7594 26.5032C20.5219 27.122 19.0781 27.6376 17.6344 27.7407V26.7095C17.6344 26.1938 17.1187 25.6782 16.6031 25.6782C16.0875 25.6782 15.5719 26.1938 15.5719 26.7095V27.7407C10.1062 27.2251 5.775 22.8938 5.25937 17.4282H6.29062C6.80625 17.4282 7.32187 16.9126 7.32187 16.397C7.32187 15.8813 6.80625 15.3657 6.29062 15.3657H5.15625C5.67187 10.0032 10.0031 5.67197 15.4687 5.15635V6.1876C15.4687 6.70322 15.9844 7.21885 16.5 7.21885C17.0156 7.21885 17.5312 6.70322 17.5312 6.1876V5.15635C22.9969 5.67197 27.3281 10.0032 27.8437 15.4688H26.8125C26.2969 15.4688 25.7812 15.9845 25.7812 16.5001C25.7812 17.0157 26.2969 17.5313 26.8125 17.5313Z" fill="#6933DC"/>
<path d="M16.5 7.21885V3.09385C14.5406 3.09385 12.5813 3.50635 10.9313 4.33135L9.69375 3.09385C8.35312 1.75322 6.08437 1.75322 4.74375 3.09385L4.125 3.7126C2.78438 5.05322 2.78438 7.32197 4.125 8.6626L5.05313 9.59072C3.81563 11.6532 3.09375 13.922 3.09375 16.5001C3.09375 19.697 4.22812 22.6876 6.1875 25.0595V29.9063C6.1875 30.0095 6.1875 30.1126 6.1875 30.2157V30.3188C6.1875 30.3188 6.1875 30.3188 6.1875 30.422C6.1875 30.5251 6.29062 30.6282 6.39375 30.7313C6.49687 30.8345 6.6 30.8345 6.70312 30.9376C6.70312 30.9376 6.70312 30.9376 6.80625 30.9376H6.90937C7.0125 30.9376 7.11562 30.9376 7.21875 30.9376C7.32188 30.9376 7.425 30.9376 7.52813 30.9376H7.63125C7.63125 30.9376 7.63125 30.9376 7.73438 30.9376C7.8375 30.9376 7.94063 30.8345 8.04375 30.7313L10.3125 28.4626C12.1687 29.4938 14.3344 30.0095 16.6031 30.0095V25.8845C16.0875 25.8845 15.5719 26.4001 15.5719 26.9157V27.947C14.025 27.8438 12.6844 27.4313 11.4469 26.7095C11.0344 26.5032 10.6219 26.1938 10.2094 25.9876C7.52812 24.1313 5.67187 21.1407 5.3625 17.7376H6.39375C6.90937 17.7376 7.425 17.222 7.425 16.7063C7.425 16.1907 6.90937 15.6751 6.39375 15.6751H5.15625C5.67188 10.0032 10.0031 5.67197 15.4688 5.15635V6.1876C15.4688 6.70322 15.9844 7.21885 16.5 7.21885Z" fill="#6933DC"/>
</svg>
